%TF.GenerationSoftware,KiCad,Pcbnew,6.0.9*%
%TF.CreationDate,2022-12-09T21:33:21+01:00*%
%TF.ProjectId,rOxpad,724f7870-6164-42e6-9b69-6361645f7063,rev?*%
%TF.SameCoordinates,Original*%
%TF.FileFunction,Legend,Top*%
%TF.FilePolarity,Positive*%
%FSLAX46Y46*%
G04 Gerber Fmt 4.6, Leading zero omitted, Abs format (unit mm)*
G04 Created by KiCad (PCBNEW 6.0.9) date 2022-12-09 21:33:21*
%MOMM*%
%LPD*%
G01*
G04 APERTURE LIST*
G04 Aperture macros list*
%AMRoundRect*
0 Rectangle with rounded corners*
0 $1 Rounding radius*
0 $2 $3 $4 $5 $6 $7 $8 $9 X,Y pos of 4 corners*
0 Add a 4 corners polygon primitive as box body*
4,1,4,$2,$3,$4,$5,$6,$7,$8,$9,$2,$3,0*
0 Add four circle primitives for the rounded corners*
1,1,$1+$1,$2,$3*
1,1,$1+$1,$4,$5*
1,1,$1+$1,$6,$7*
1,1,$1+$1,$8,$9*
0 Add four rect primitives between the rounded corners*
20,1,$1+$1,$2,$3,$4,$5,0*
20,1,$1+$1,$4,$5,$6,$7,0*
20,1,$1+$1,$6,$7,$8,$9,0*
20,1,$1+$1,$8,$9,$2,$3,0*%
%AMRotRect*
0 Rectangle, with rotation*
0 The origin of the aperture is its center*
0 $1 length*
0 $2 width*
0 $3 Rotation angle, in degrees counterclockwise*
0 Add horizontal line*
21,1,$1,$2,0,0,$3*%
G04 Aperture macros list end*
%ADD10C,0.150000*%
%ADD11C,0.300000*%
%ADD12C,0.120000*%
%ADD13R,1.800000X1.100000*%
%ADD14RoundRect,0.250000X-0.450000X0.350000X-0.450000X-0.350000X0.450000X-0.350000X0.450000X0.350000X0*%
%ADD15R,1.200000X0.900000*%
%ADD16RoundRect,0.250000X0.475000X-0.337500X0.475000X0.337500X-0.475000X0.337500X-0.475000X-0.337500X0*%
%ADD17RoundRect,0.250000X-0.574524X-0.097227X-0.097227X-0.574524X0.574524X0.097227X0.097227X0.574524X0*%
%ADD18RoundRect,0.250000X0.350000X0.450000X-0.350000X0.450000X-0.350000X-0.450000X0.350000X-0.450000X0*%
%ADD19RoundRect,0.250000X0.565685X0.070711X0.070711X0.565685X-0.565685X-0.070711X-0.070711X-0.565685X0*%
%ADD20RotRect,1.400000X1.200000X225.000000*%
%ADD21R,1.000000X0.700000*%
%ADD22R,0.600000X0.700000*%
%ADD23RoundRect,0.250000X-0.475000X0.337500X-0.475000X-0.337500X0.475000X-0.337500X0.475000X0.337500X0*%
%ADD24RotRect,1.600000X0.550000X315.000000*%
%ADD25RotRect,1.600000X0.550000X45.000000*%
%ADD26RoundRect,0.250000X0.574524X0.097227X0.097227X0.574524X-0.574524X-0.097227X-0.097227X-0.574524X0*%
%ADD27RoundRect,0.250001X-0.624999X0.462499X-0.624999X-0.462499X0.624999X-0.462499X0.624999X0.462499X0*%
%ADD28C,0.650000*%
%ADD29R,0.600000X2.450000*%
%ADD30R,0.300000X2.450000*%
%ADD31C,3.987800*%
%ADD32C,1.750000*%
%ADD33C,3.300000*%
G04 APERTURE END LIST*
D10*
X104277988Y-105192973D02*
X103739240Y-104654225D01*
X102863774Y-103778759D02*
X102325026Y-103240011D01*
X102863774Y-103240011D02*
X102325026Y-103778759D01*
D11*
X78789285Y-98250261D02*
X78789285Y-96250261D01*
X79265476Y-96250261D01*
X79551190Y-96345500D01*
X79741666Y-96535976D01*
X79836904Y-96726452D01*
X79932142Y-97107404D01*
X79932142Y-97393119D01*
X79836904Y-97774071D01*
X79741666Y-97964547D01*
X79551190Y-98155023D01*
X79265476Y-98250261D01*
X78789285Y-98250261D01*
X81551190Y-98155023D02*
X81360714Y-98250261D01*
X80979761Y-98250261D01*
X80789285Y-98155023D01*
X80694047Y-97964547D01*
X80694047Y-97202642D01*
X80789285Y-97012166D01*
X80979761Y-96916928D01*
X81360714Y-96916928D01*
X81551190Y-97012166D01*
X81646428Y-97202642D01*
X81646428Y-97393119D01*
X80694047Y-97583595D01*
X82408333Y-98155023D02*
X82598809Y-98250261D01*
X82979761Y-98250261D01*
X83170238Y-98155023D01*
X83265476Y-97964547D01*
X83265476Y-97869309D01*
X83170238Y-97678833D01*
X82979761Y-97583595D01*
X82694047Y-97583595D01*
X82503571Y-97488357D01*
X82408333Y-97297880D01*
X82408333Y-97202642D01*
X82503571Y-97012166D01*
X82694047Y-96916928D01*
X82979761Y-96916928D01*
X83170238Y-97012166D01*
X84122619Y-98250261D02*
X84122619Y-96916928D01*
X84122619Y-96250261D02*
X84027380Y-96345500D01*
X84122619Y-96440738D01*
X84217857Y-96345500D01*
X84122619Y-96250261D01*
X84122619Y-96440738D01*
X85932142Y-96916928D02*
X85932142Y-98535976D01*
X85836904Y-98726452D01*
X85741666Y-98821690D01*
X85551190Y-98916928D01*
X85265476Y-98916928D01*
X85075000Y-98821690D01*
X85932142Y-98155023D02*
X85741666Y-98250261D01*
X85360714Y-98250261D01*
X85170238Y-98155023D01*
X85075000Y-98059785D01*
X84979761Y-97869309D01*
X84979761Y-97297880D01*
X85075000Y-97107404D01*
X85170238Y-97012166D01*
X85360714Y-96916928D01*
X85741666Y-96916928D01*
X85932142Y-97012166D01*
X86884523Y-96916928D02*
X86884523Y-98250261D01*
X86884523Y-97107404D02*
X86979761Y-97012166D01*
X87170238Y-96916928D01*
X87455952Y-96916928D01*
X87646428Y-97012166D01*
X87741666Y-97202642D01*
X87741666Y-98250261D01*
X89455952Y-98155023D02*
X89265476Y-98250261D01*
X88884523Y-98250261D01*
X88694047Y-98155023D01*
X88598809Y-97964547D01*
X88598809Y-97202642D01*
X88694047Y-97012166D01*
X88884523Y-96916928D01*
X89265476Y-96916928D01*
X89455952Y-97012166D01*
X89551190Y-97202642D01*
X89551190Y-97393119D01*
X88598809Y-97583595D01*
X91265476Y-98250261D02*
X91265476Y-96250261D01*
X91265476Y-98155023D02*
X91075000Y-98250261D01*
X90694047Y-98250261D01*
X90503571Y-98155023D01*
X90408333Y-98059785D01*
X90313095Y-97869309D01*
X90313095Y-97297880D01*
X90408333Y-97107404D01*
X90503571Y-97012166D01*
X90694047Y-96916928D01*
X91075000Y-96916928D01*
X91265476Y-97012166D01*
X93741666Y-98250261D02*
X93741666Y-96916928D01*
X93741666Y-96250261D02*
X93646428Y-96345500D01*
X93741666Y-96440738D01*
X93836904Y-96345500D01*
X93741666Y-96250261D01*
X93741666Y-96440738D01*
X94694047Y-96916928D02*
X94694047Y-98250261D01*
X94694047Y-97107404D02*
X94789285Y-97012166D01*
X94979761Y-96916928D01*
X95265476Y-96916928D01*
X95455952Y-97012166D01*
X95551190Y-97202642D01*
X95551190Y-98250261D01*
X97932142Y-98155023D02*
X98217857Y-98250261D01*
X98694047Y-98250261D01*
X98884523Y-98155023D01*
X98979761Y-98059785D01*
X99075000Y-97869309D01*
X99075000Y-97678833D01*
X98979761Y-97488357D01*
X98884523Y-97393119D01*
X98694047Y-97297880D01*
X98313095Y-97202642D01*
X98122619Y-97107404D01*
X98027380Y-97012166D01*
X97932142Y-96821690D01*
X97932142Y-96631214D01*
X98027380Y-96440738D01*
X98122619Y-96345500D01*
X98313095Y-96250261D01*
X98789285Y-96250261D01*
X99075000Y-96345500D01*
X99932142Y-96916928D02*
X99932142Y-98916928D01*
X99932142Y-97012166D02*
X100122619Y-96916928D01*
X100503571Y-96916928D01*
X100694047Y-97012166D01*
X100789285Y-97107404D01*
X100884523Y-97297880D01*
X100884523Y-97869309D01*
X100789285Y-98059785D01*
X100694047Y-98155023D01*
X100503571Y-98250261D01*
X100122619Y-98250261D01*
X99932142Y-98155023D01*
X102598809Y-98250261D02*
X102598809Y-97202642D01*
X102503571Y-97012166D01*
X102313095Y-96916928D01*
X101932142Y-96916928D01*
X101741666Y-97012166D01*
X102598809Y-98155023D02*
X102408333Y-98250261D01*
X101932142Y-98250261D01*
X101741666Y-98155023D01*
X101646428Y-97964547D01*
X101646428Y-97774071D01*
X101741666Y-97583595D01*
X101932142Y-97488357D01*
X102408333Y-97488357D01*
X102598809Y-97393119D01*
X103551190Y-98250261D02*
X103551190Y-96916928D01*
X103551190Y-96250261D02*
X103455952Y-96345500D01*
X103551190Y-96440738D01*
X103646428Y-96345500D01*
X103551190Y-96250261D01*
X103551190Y-96440738D01*
X104503571Y-96916928D02*
X104503571Y-98250261D01*
X104503571Y-97107404D02*
X104598809Y-97012166D01*
X104789285Y-96916928D01*
X105075000Y-96916928D01*
X105265476Y-97012166D01*
X105360714Y-97202642D01*
X105360714Y-98250261D01*
D10*
X98922011Y-107024026D02*
X99460759Y-107562774D01*
X100336225Y-108438240D02*
X100874973Y-108976988D01*
X100336225Y-108976988D02*
X100874973Y-108438240D01*
X116387571Y-109744047D02*
X116387571Y-110505952D01*
X116387571Y-111744047D02*
X116387571Y-112505952D01*
X116006619Y-112125000D02*
X116768523Y-112125000D01*
X98496428Y-91042857D02*
X98496428Y-90280952D01*
X98496428Y-87519047D02*
X98496428Y-86757142D01*
X98877380Y-87138095D02*
X98115476Y-87138095D01*
X117419428Y-91042857D02*
X117419428Y-90280952D01*
X117419428Y-87519047D02*
X117419428Y-86757142D01*
X117800380Y-87138095D02*
X117038476Y-87138095D01*
X97988428Y-77580952D02*
X97988428Y-76819047D01*
X97988428Y-75580952D02*
X97988428Y-74819047D01*
X98369380Y-75200000D02*
X97607476Y-75200000D01*
D11*
X78788523Y-108473761D02*
X78788523Y-107140428D01*
X78788523Y-107521380D02*
X78883761Y-107330904D01*
X78979000Y-107235666D01*
X79169476Y-107140428D01*
X79359952Y-107140428D01*
X80407571Y-106473761D02*
X80788523Y-106473761D01*
X80979000Y-106569000D01*
X81169476Y-106759476D01*
X81264714Y-107140428D01*
X81264714Y-107807095D01*
X81169476Y-108188047D01*
X80979000Y-108378523D01*
X80788523Y-108473761D01*
X80407571Y-108473761D01*
X80217095Y-108378523D01*
X80026619Y-108188047D01*
X79931380Y-107807095D01*
X79931380Y-107140428D01*
X80026619Y-106759476D01*
X80217095Y-106569000D01*
X80407571Y-106473761D01*
X81931380Y-108473761D02*
X82979000Y-107140428D01*
X81931380Y-107140428D02*
X82979000Y-108473761D01*
X83740904Y-107140428D02*
X83740904Y-109140428D01*
X83740904Y-107235666D02*
X83931380Y-107140428D01*
X84312333Y-107140428D01*
X84502809Y-107235666D01*
X84598047Y-107330904D01*
X84693285Y-107521380D01*
X84693285Y-108092809D01*
X84598047Y-108283285D01*
X84502809Y-108378523D01*
X84312333Y-108473761D01*
X83931380Y-108473761D01*
X83740904Y-108378523D01*
X86407571Y-108473761D02*
X86407571Y-107426142D01*
X86312333Y-107235666D01*
X86121857Y-107140428D01*
X85740904Y-107140428D01*
X85550428Y-107235666D01*
X86407571Y-108378523D02*
X86217095Y-108473761D01*
X85740904Y-108473761D01*
X85550428Y-108378523D01*
X85455190Y-108188047D01*
X85455190Y-107997571D01*
X85550428Y-107807095D01*
X85740904Y-107711857D01*
X86217095Y-107711857D01*
X86407571Y-107616619D01*
X88217095Y-108473761D02*
X88217095Y-106473761D01*
X88217095Y-108378523D02*
X88026619Y-108473761D01*
X87645666Y-108473761D01*
X87455190Y-108378523D01*
X87359952Y-108283285D01*
X87264714Y-108092809D01*
X87264714Y-107521380D01*
X87359952Y-107330904D01*
X87455190Y-107235666D01*
X87645666Y-107140428D01*
X88026619Y-107140428D01*
X88217095Y-107235666D01*
X90502809Y-107140428D02*
X90979000Y-108473761D01*
X91455190Y-107140428D01*
X93264714Y-108473761D02*
X92121857Y-108473761D01*
X92693285Y-108473761D02*
X92693285Y-106473761D01*
X92502809Y-106759476D01*
X92312333Y-106949952D01*
X92121857Y-107045190D01*
D10*
X98226571Y-112157047D02*
X98226571Y-112918952D01*
X98226571Y-114157047D02*
X98226571Y-114918952D01*
X97845619Y-114538000D02*
X98607523Y-114538000D01*
D11*
X116102678Y-123003571D02*
X116102678Y-124075000D01*
X116031250Y-124289285D01*
X115888392Y-124432142D01*
X115674107Y-124503571D01*
X115531250Y-124503571D01*
X117531250Y-124503571D02*
X116816964Y-124503571D01*
X116816964Y-123003571D01*
X118888392Y-124360714D02*
X118816964Y-124432142D01*
X118602678Y-124503571D01*
X118459821Y-124503571D01*
X118245535Y-124432142D01*
X118102678Y-124289285D01*
X118031250Y-124146428D01*
X117959821Y-123860714D01*
X117959821Y-123646428D01*
X118031250Y-123360714D01*
X118102678Y-123217857D01*
X118245535Y-123075000D01*
X118459821Y-123003571D01*
X118602678Y-123003571D01*
X118816964Y-123075000D01*
X118888392Y-123146428D01*
X119959821Y-123003571D02*
X119959821Y-124075000D01*
X119888392Y-124289285D01*
X119745535Y-124432142D01*
X119531250Y-124503571D01*
X119388392Y-124503571D01*
X121388392Y-124503571D02*
X120674107Y-124503571D01*
X120674107Y-123003571D01*
X122745535Y-124360714D02*
X122674107Y-124432142D01*
X122459821Y-124503571D01*
X122316964Y-124503571D01*
X122102678Y-124432142D01*
X121959821Y-124289285D01*
X121888392Y-124146428D01*
X121816964Y-123860714D01*
X121816964Y-123646428D01*
X121888392Y-123360714D01*
X121959821Y-123217857D01*
X122102678Y-123075000D01*
X122316964Y-123003571D01*
X122459821Y-123003571D01*
X122674107Y-123075000D01*
X122745535Y-123146428D01*
X123816964Y-123003571D02*
X123816964Y-124075000D01*
X123745535Y-124289285D01*
X123602678Y-124432142D01*
X123388392Y-124503571D01*
X123245535Y-124503571D01*
X125245535Y-124503571D02*
X124531250Y-124503571D01*
X124531250Y-123003571D01*
X126602678Y-124360714D02*
X126531250Y-124432142D01*
X126316964Y-124503571D01*
X126174107Y-124503571D01*
X125959821Y-124432142D01*
X125816964Y-124289285D01*
X125745535Y-124146428D01*
X125674107Y-123860714D01*
X125674107Y-123646428D01*
X125745535Y-123360714D01*
X125816964Y-123217857D01*
X125959821Y-123075000D01*
X126174107Y-123003571D01*
X126316964Y-123003571D01*
X126531250Y-123075000D01*
X126602678Y-123146428D01*
X127674107Y-123003571D02*
X127674107Y-124075000D01*
X127602678Y-124289285D01*
X127459821Y-124432142D01*
X127245535Y-124503571D01*
X127102678Y-124503571D01*
X129102678Y-124503571D02*
X128388392Y-124503571D01*
X128388392Y-123003571D01*
X130459821Y-124360714D02*
X130388392Y-124432142D01*
X130174107Y-124503571D01*
X130031250Y-124503571D01*
X129816964Y-124432142D01*
X129674107Y-124289285D01*
X129602678Y-124146428D01*
X129531250Y-123860714D01*
X129531250Y-123646428D01*
X129602678Y-123360714D01*
X129674107Y-123217857D01*
X129816964Y-123075000D01*
X130031250Y-123003571D01*
X130174107Y-123003571D01*
X130388392Y-123075000D01*
X130459821Y-123146428D01*
D10*
X136469428Y-91042857D02*
X136469428Y-90280952D01*
X136469428Y-87519047D02*
X136469428Y-86757142D01*
X136850380Y-87138095D02*
X136088476Y-87138095D01*
D11*
X107156250Y-108664285D02*
X107251488Y-108759523D01*
X107156250Y-108854761D01*
X107061011Y-108759523D01*
X107156250Y-108664285D01*
X107156250Y-108854761D01*
D10*
X116403428Y-108568952D02*
X116403428Y-107807047D01*
X116403428Y-106568952D02*
X116403428Y-105807047D01*
X116784380Y-106188000D02*
X116022476Y-106188000D01*
X115641428Y-102980952D02*
X115641428Y-102219047D01*
X115641428Y-100980952D02*
X115641428Y-100219047D01*
X116022380Y-100600000D02*
X115260476Y-100600000D01*
%TO.C,SW1*%
X127254166Y-117712511D02*
X127397023Y-117760130D01*
X127635119Y-117760130D01*
X127730357Y-117712511D01*
X127777976Y-117664892D01*
X127825595Y-117569654D01*
X127825595Y-117474416D01*
X127777976Y-117379178D01*
X127730357Y-117331559D01*
X127635119Y-117283940D01*
X127444642Y-117236321D01*
X127349404Y-117188702D01*
X127301785Y-117141083D01*
X127254166Y-117045845D01*
X127254166Y-116950607D01*
X127301785Y-116855369D01*
X127349404Y-116807750D01*
X127444642Y-116760130D01*
X127682738Y-116760130D01*
X127825595Y-116807750D01*
X128158928Y-116760130D02*
X128397023Y-117760130D01*
X128587500Y-117045845D01*
X128777976Y-117760130D01*
X129016071Y-116760130D01*
X129920833Y-117760130D02*
X129349404Y-117760130D01*
X129635119Y-117760130D02*
X129635119Y-116760130D01*
X129539880Y-116902988D01*
X129444642Y-116998226D01*
X129349404Y-117045845D01*
%TO.C,R6*%
X99464880Y-69714880D02*
X99464880Y-70191071D01*
X99941071Y-70238690D01*
X99893452Y-70191071D01*
X99845833Y-70095833D01*
X99845833Y-69857738D01*
X99893452Y-69762500D01*
X99941071Y-69714880D01*
X100036309Y-69667261D01*
X100274404Y-69667261D01*
X100369642Y-69714880D01*
X100417261Y-69762500D01*
X100464880Y-69857738D01*
X100464880Y-70095833D01*
X100417261Y-70191071D01*
X100369642Y-70238690D01*
X100369642Y-69238690D02*
X100417261Y-69191071D01*
X100464880Y-69238690D01*
X100417261Y-69286309D01*
X100369642Y-69238690D01*
X100464880Y-69238690D01*
X100464880Y-68238690D02*
X100464880Y-68810119D01*
X100464880Y-68524404D02*
X99464880Y-68524404D01*
X99607738Y-68619642D01*
X99702976Y-68714880D01*
X99750595Y-68810119D01*
X100464880Y-67810119D02*
X99464880Y-67810119D01*
X100083928Y-67714880D02*
X100464880Y-67429166D01*
X99798214Y-67429166D02*
X100179166Y-67810119D01*
X100464880Y-67048214D02*
X100464880Y-66810119D01*
X100274404Y-66810119D01*
X100226785Y-66905357D01*
X100131547Y-67000595D01*
X99988690Y-67048214D01*
X99750595Y-67048214D01*
X99607738Y-67000595D01*
X99512500Y-66905357D01*
X99464880Y-66762500D01*
X99464880Y-66572023D01*
X99512500Y-66429166D01*
X99607738Y-66333928D01*
X99750595Y-66286309D01*
X99988690Y-66286309D01*
X100131547Y-66333928D01*
X100226785Y-66429166D01*
X100274404Y-66524404D01*
X100464880Y-66524404D01*
X100464880Y-66286309D01*
%TO.C,D2*%
X114339880Y-89638095D02*
X113339880Y-89638095D01*
X113339880Y-89400000D01*
X113387500Y-89257142D01*
X113482738Y-89161904D01*
X113577976Y-89114285D01*
X113768452Y-89066666D01*
X113911309Y-89066666D01*
X114101785Y-89114285D01*
X114197023Y-89161904D01*
X114292261Y-89257142D01*
X114339880Y-89400000D01*
X114339880Y-89638095D01*
X113435119Y-88685714D02*
X113387500Y-88638095D01*
X113339880Y-88542857D01*
X113339880Y-88304761D01*
X113387500Y-88209523D01*
X113435119Y-88161904D01*
X113530357Y-88114285D01*
X113625595Y-88114285D01*
X113768452Y-88161904D01*
X114339880Y-88733333D01*
X114339880Y-88114285D01*
%TO.C,C1*%
X117927380Y-111720238D02*
X117927380Y-112291666D01*
X117927380Y-112005952D02*
X116927380Y-112005952D01*
X117070238Y-112101190D01*
X117165476Y-112196428D01*
X117213095Y-112291666D01*
X117260714Y-110863095D02*
X117927380Y-110863095D01*
X117260714Y-111291666D02*
X117784523Y-111291666D01*
X117879761Y-111244047D01*
X117927380Y-111148809D01*
X117927380Y-111005952D01*
X117879761Y-110910714D01*
X117832142Y-110863095D01*
X117403571Y-110053571D02*
X117403571Y-110386904D01*
X117927380Y-110386904D02*
X116927380Y-110386904D01*
X116927380Y-109910714D01*
%TO.C,C3*%
X96831280Y-108680055D02*
X96898624Y-108680055D01*
X96999639Y-108713727D01*
X97167998Y-108882085D01*
X97201669Y-108983101D01*
X97201669Y-109050444D01*
X97167998Y-109151459D01*
X97100654Y-109218803D01*
X96965967Y-109286146D01*
X96157845Y-109286146D01*
X96595578Y-109723879D01*
X97504715Y-109353490D02*
X97572059Y-109353490D01*
X97673074Y-109387162D01*
X97841433Y-109555520D01*
X97875105Y-109656536D01*
X97875105Y-109723879D01*
X97841433Y-109824894D01*
X97774089Y-109892238D01*
X97639402Y-109959581D01*
X96831280Y-109959581D01*
X97269013Y-110397314D01*
X97572059Y-110700360D02*
X98279166Y-109993253D01*
X98548540Y-110262627D01*
X98582211Y-110363643D01*
X98582211Y-110430986D01*
X98548540Y-110532001D01*
X98447524Y-110633017D01*
X98346509Y-110666688D01*
X98279166Y-110666688D01*
X98178150Y-110633017D01*
X97908776Y-110363643D01*
X98649555Y-110835047D02*
X98918929Y-111104421D01*
X98279166Y-111407467D02*
X98885257Y-110801375D01*
X98986272Y-110767704D01*
X99087288Y-110801375D01*
X99154631Y-110868719D01*
%TO.C,R3*%
X117895833Y-117602380D02*
X117324404Y-117602380D01*
X117610119Y-117602380D02*
X117610119Y-116602380D01*
X117514880Y-116745238D01*
X117419642Y-116840476D01*
X117324404Y-116888095D01*
X118514880Y-116602380D02*
X118610119Y-116602380D01*
X118705357Y-116650000D01*
X118752976Y-116697619D01*
X118800595Y-116792857D01*
X118848214Y-116983333D01*
X118848214Y-117221428D01*
X118800595Y-117411904D01*
X118752976Y-117507142D01*
X118705357Y-117554761D01*
X118610119Y-117602380D01*
X118514880Y-117602380D01*
X118419642Y-117554761D01*
X118372023Y-117507142D01*
X118324404Y-117411904D01*
X118276785Y-117221428D01*
X118276785Y-116983333D01*
X118324404Y-116792857D01*
X118372023Y-116697619D01*
X118419642Y-116650000D01*
X118514880Y-116602380D01*
X119276785Y-117602380D02*
X119276785Y-116602380D01*
X119372023Y-117221428D02*
X119657738Y-117602380D01*
X119657738Y-116935714D02*
X119276785Y-117316666D01*
X120038690Y-117602380D02*
X120276785Y-117602380D01*
X120276785Y-117411904D01*
X120181547Y-117364285D01*
X120086309Y-117269047D01*
X120038690Y-117126190D01*
X120038690Y-116888095D01*
X120086309Y-116745238D01*
X120181547Y-116650000D01*
X120324404Y-116602380D01*
X120514880Y-116602380D01*
X120657738Y-116650000D01*
X120752976Y-116745238D01*
X120800595Y-116888095D01*
X120800595Y-117126190D01*
X120752976Y-117269047D01*
X120657738Y-117364285D01*
X120562500Y-117411904D01*
X120562500Y-117602380D01*
X120800595Y-117602380D01*
%TO.C,R4*%
X97661160Y-118112923D02*
X97257099Y-117708862D01*
X97459129Y-117910893D02*
X98166236Y-117203786D01*
X97997877Y-117237458D01*
X97863190Y-117237458D01*
X97762175Y-117203786D01*
X98806000Y-117843549D02*
X98873343Y-117910893D01*
X98907015Y-118011908D01*
X98907015Y-118079251D01*
X98873343Y-118180267D01*
X98772328Y-118348625D01*
X98603969Y-118516984D01*
X98435610Y-118618000D01*
X98334595Y-118651671D01*
X98267251Y-118651671D01*
X98166236Y-118618000D01*
X98098893Y-118550656D01*
X98065221Y-118449641D01*
X98065221Y-118382297D01*
X98098893Y-118281282D01*
X98199908Y-118112923D01*
X98368267Y-117944564D01*
X98536625Y-117843549D01*
X98637641Y-117809877D01*
X98704984Y-117809877D01*
X98806000Y-117843549D01*
X98637641Y-119089404D02*
X99344748Y-118382297D01*
X98974358Y-118887374D02*
X98907015Y-119358778D01*
X99378419Y-118887374D02*
X98839671Y-118887374D01*
X99176389Y-119628152D02*
X99344748Y-119796511D01*
X99479435Y-119661824D01*
X99445763Y-119560809D01*
X99445763Y-119426122D01*
X99513106Y-119291435D01*
X99681465Y-119123076D01*
X99816152Y-119055732D01*
X99950839Y-119055732D01*
X100085526Y-119123076D01*
X100220213Y-119257763D01*
X100287557Y-119392450D01*
X100287557Y-119527137D01*
X100220213Y-119661824D01*
X100051854Y-119830183D01*
X99917167Y-119897526D01*
X99782480Y-119897526D01*
X99681465Y-119863854D01*
X99546778Y-119998541D01*
X99715137Y-120166900D01*
%TO.C,R2*%
X106608619Y-77152333D02*
X106561000Y-77104714D01*
X106513380Y-77009476D01*
X106513380Y-76771380D01*
X106561000Y-76676142D01*
X106608619Y-76628523D01*
X106703857Y-76580904D01*
X106799095Y-76580904D01*
X106941952Y-76628523D01*
X107513380Y-77199952D01*
X107513380Y-76580904D01*
X106608619Y-76199952D02*
X106561000Y-76152333D01*
X106513380Y-76057095D01*
X106513380Y-75819000D01*
X106561000Y-75723761D01*
X106608619Y-75676142D01*
X106703857Y-75628523D01*
X106799095Y-75628523D01*
X106941952Y-75676142D01*
X107513380Y-76247571D01*
X107513380Y-75628523D01*
X107513380Y-75247571D02*
X107513380Y-75009476D01*
X107322904Y-75009476D01*
X107275285Y-75104714D01*
X107180047Y-75199952D01*
X107037190Y-75247571D01*
X106799095Y-75247571D01*
X106656238Y-75199952D01*
X106561000Y-75104714D01*
X106513380Y-74961857D01*
X106513380Y-74771380D01*
X106561000Y-74628523D01*
X106656238Y-74533285D01*
X106799095Y-74485666D01*
X107037190Y-74485666D01*
X107180047Y-74533285D01*
X107275285Y-74628523D01*
X107322904Y-74723761D01*
X107513380Y-74723761D01*
X107513380Y-74485666D01*
%TO.C,Y1*%
X98992122Y-105882816D02*
X98588061Y-106286877D01*
X98790091Y-106084847D02*
X98082985Y-105377740D01*
X98116656Y-105546099D01*
X98116656Y-105680786D01*
X98082985Y-105781801D01*
X98891107Y-104569618D02*
X98756420Y-104704305D01*
X98722748Y-104805320D01*
X98722748Y-104872664D01*
X98756420Y-105041023D01*
X98857435Y-105209381D01*
X99126809Y-105478755D01*
X99227824Y-105512427D01*
X99295168Y-105512427D01*
X99396183Y-105478755D01*
X99530870Y-105344068D01*
X99564542Y-105243053D01*
X99564542Y-105175710D01*
X99530870Y-105074694D01*
X99362511Y-104906336D01*
X99261496Y-104872664D01*
X99194152Y-104872664D01*
X99093137Y-104906336D01*
X98958450Y-105041023D01*
X98924778Y-105142038D01*
X98924778Y-105209381D01*
X98958450Y-105310397D01*
X99968603Y-104906336D02*
X99261496Y-104199229D01*
X100002275Y-104468603D01*
X99732900Y-103727824D01*
X100440007Y-104434931D01*
X100776725Y-104098213D02*
X100069618Y-103391107D01*
X100406336Y-103727824D02*
X100810397Y-103323763D01*
X101180786Y-103694152D02*
X100473679Y-102987046D01*
X100978755Y-102953374D02*
X101349145Y-102582985D01*
X101450160Y-103424778D01*
X101820549Y-103054389D01*
%TO.C,D1*%
X95289880Y-89638095D02*
X94289880Y-89638095D01*
X94289880Y-89400000D01*
X94337500Y-89257142D01*
X94432738Y-89161904D01*
X94527976Y-89114285D01*
X94718452Y-89066666D01*
X94861309Y-89066666D01*
X95051785Y-89114285D01*
X95147023Y-89161904D01*
X95242261Y-89257142D01*
X95289880Y-89400000D01*
X95289880Y-89638095D01*
X95289880Y-88114285D02*
X95289880Y-88685714D01*
X95289880Y-88400000D02*
X94289880Y-88400000D01*
X94432738Y-88495238D01*
X94527976Y-88590476D01*
X94575595Y-88685714D01*
%TO.C,R1*%
X104322619Y-77152333D02*
X104275000Y-77104714D01*
X104227380Y-77009476D01*
X104227380Y-76771380D01*
X104275000Y-76676142D01*
X104322619Y-76628523D01*
X104417857Y-76580904D01*
X104513095Y-76580904D01*
X104655952Y-76628523D01*
X105227380Y-77199952D01*
X105227380Y-76580904D01*
X104322619Y-76199952D02*
X104275000Y-76152333D01*
X104227380Y-76057095D01*
X104227380Y-75819000D01*
X104275000Y-75723761D01*
X104322619Y-75676142D01*
X104417857Y-75628523D01*
X104513095Y-75628523D01*
X104655952Y-75676142D01*
X105227380Y-76247571D01*
X105227380Y-75628523D01*
X105227380Y-75247571D02*
X105227380Y-75009476D01*
X105036904Y-75009476D01*
X104989285Y-75104714D01*
X104894047Y-75199952D01*
X104751190Y-75247571D01*
X104513095Y-75247571D01*
X104370238Y-75199952D01*
X104275000Y-75104714D01*
X104227380Y-74961857D01*
X104227380Y-74771380D01*
X104275000Y-74628523D01*
X104370238Y-74533285D01*
X104513095Y-74485666D01*
X104751190Y-74485666D01*
X104894047Y-74533285D01*
X104989285Y-74628523D01*
X105036904Y-74723761D01*
X105227380Y-74723761D01*
X105227380Y-74485666D01*
%TO.C,C7*%
X117133630Y-102671428D02*
X117133630Y-103242857D01*
X117133630Y-102957142D02*
X116133630Y-102957142D01*
X116276488Y-103052380D01*
X116371726Y-103147619D01*
X116419345Y-103242857D01*
X116133630Y-102052380D02*
X116133630Y-101957142D01*
X116181250Y-101861904D01*
X116228869Y-101814285D01*
X116324107Y-101766666D01*
X116514583Y-101719047D01*
X116752678Y-101719047D01*
X116943154Y-101766666D01*
X117038392Y-101814285D01*
X117086011Y-101861904D01*
X117133630Y-101957142D01*
X117133630Y-102052380D01*
X117086011Y-102147619D01*
X117038392Y-102195238D01*
X116943154Y-102242857D01*
X116752678Y-102290476D01*
X116514583Y-102290476D01*
X116324107Y-102242857D01*
X116228869Y-102195238D01*
X116181250Y-102147619D01*
X116133630Y-102052380D01*
X116466964Y-100861904D02*
X117133630Y-100861904D01*
X116466964Y-101290476D02*
X116990773Y-101290476D01*
X117086011Y-101242857D01*
X117133630Y-101147619D01*
X117133630Y-101004761D01*
X117086011Y-100909523D01*
X117038392Y-100861904D01*
X116609821Y-100052380D02*
X116609821Y-100385714D01*
X117133630Y-100385714D02*
X116133630Y-100385714D01*
X116133630Y-99909523D01*
%TO.C,U1*%
X111585768Y-111479227D02*
X112158188Y-110906807D01*
X112191860Y-110805792D01*
X112191860Y-110738448D01*
X112158188Y-110637433D01*
X112023501Y-110502746D01*
X111922486Y-110469074D01*
X111855142Y-110469074D01*
X111754127Y-110502746D01*
X111181707Y-111075166D01*
X111181707Y-109660952D02*
X111585768Y-110065013D01*
X111383738Y-109862983D02*
X110676631Y-110570089D01*
X110844990Y-110536418D01*
X110979677Y-110536418D01*
X111080692Y-110570089D01*
%TO.C,C4*%
X94448380Y-115149107D02*
X94448380Y-115053869D01*
X94496000Y-114958630D01*
X94543619Y-114911011D01*
X94638857Y-114863392D01*
X94829333Y-114815773D01*
X95067428Y-114815773D01*
X95257904Y-114863392D01*
X95353142Y-114911011D01*
X95400761Y-114958630D01*
X95448380Y-115053869D01*
X95448380Y-115149107D01*
X95400761Y-115244345D01*
X95353142Y-115291964D01*
X95257904Y-115339583D01*
X95067428Y-115387202D01*
X94829333Y-115387202D01*
X94638857Y-115339583D01*
X94543619Y-115291964D01*
X94496000Y-115244345D01*
X94448380Y-115149107D01*
X95353142Y-114387202D02*
X95400761Y-114339583D01*
X95448380Y-114387202D01*
X95400761Y-114434821D01*
X95353142Y-114387202D01*
X95448380Y-114387202D01*
X95448380Y-113387202D02*
X95448380Y-113958630D01*
X95448380Y-113672916D02*
X94448380Y-113672916D01*
X94591238Y-113768154D01*
X94686476Y-113863392D01*
X94734095Y-113958630D01*
X94781714Y-112530059D02*
X95448380Y-112530059D01*
X94781714Y-112958630D02*
X95305523Y-112958630D01*
X95400761Y-112911011D01*
X95448380Y-112815773D01*
X95448380Y-112672916D01*
X95400761Y-112577678D01*
X95353142Y-112530059D01*
X94924571Y-111720535D02*
X94924571Y-112053869D01*
X95448380Y-112053869D02*
X94448380Y-112053869D01*
X94448380Y-111577678D01*
%TO.C,D3*%
X133389880Y-89638095D02*
X132389880Y-89638095D01*
X132389880Y-89400000D01*
X132437500Y-89257142D01*
X132532738Y-89161904D01*
X132627976Y-89114285D01*
X132818452Y-89066666D01*
X132961309Y-89066666D01*
X133151785Y-89114285D01*
X133247023Y-89161904D01*
X133342261Y-89257142D01*
X133389880Y-89400000D01*
X133389880Y-89638095D01*
X132389880Y-88733333D02*
X132389880Y-88114285D01*
X132770833Y-88447619D01*
X132770833Y-88304761D01*
X132818452Y-88209523D01*
X132866071Y-88161904D01*
X132961309Y-88114285D01*
X133199404Y-88114285D01*
X133294642Y-88161904D01*
X133342261Y-88209523D01*
X133389880Y-88304761D01*
X133389880Y-88590476D01*
X133342261Y-88685714D01*
X133294642Y-88733333D01*
%TO.C,C2*%
X104819818Y-100691517D02*
X104887162Y-100691517D01*
X104988177Y-100725189D01*
X105156536Y-100893547D01*
X105190207Y-100994563D01*
X105190207Y-101061906D01*
X105156536Y-101162921D01*
X105089192Y-101230265D01*
X104954505Y-101297608D01*
X104146383Y-101297608D01*
X104584116Y-101735341D01*
X105493253Y-101364952D02*
X105560597Y-101364952D01*
X105661612Y-101398624D01*
X105829971Y-101566982D01*
X105863643Y-101667998D01*
X105863643Y-101735341D01*
X105829971Y-101836356D01*
X105762627Y-101903700D01*
X105627940Y-101971043D01*
X104819818Y-101971043D01*
X105257551Y-102408776D01*
X105560597Y-102711822D02*
X106267704Y-102004715D01*
X106537078Y-102274089D01*
X106570749Y-102375105D01*
X106570749Y-102442448D01*
X106537078Y-102543463D01*
X106436062Y-102644479D01*
X106335047Y-102678150D01*
X106267704Y-102678150D01*
X106166688Y-102644479D01*
X105897314Y-102375105D01*
X106638093Y-102846509D02*
X106907467Y-103115883D01*
X106267704Y-103418929D02*
X106873795Y-102812837D01*
X106974810Y-102779166D01*
X107075826Y-102812837D01*
X107143169Y-102880181D01*
%TO.C,R5*%
X109053380Y-77906380D02*
X109053380Y-78382571D01*
X109529571Y-78430190D01*
X109481952Y-78382571D01*
X109434333Y-78287333D01*
X109434333Y-78049238D01*
X109481952Y-77954000D01*
X109529571Y-77906380D01*
X109624809Y-77858761D01*
X109862904Y-77858761D01*
X109958142Y-77906380D01*
X110005761Y-77954000D01*
X110053380Y-78049238D01*
X110053380Y-78287333D01*
X110005761Y-78382571D01*
X109958142Y-78430190D01*
X109958142Y-77430190D02*
X110005761Y-77382571D01*
X110053380Y-77430190D01*
X110005761Y-77477809D01*
X109958142Y-77430190D01*
X110053380Y-77430190D01*
X110053380Y-76430190D02*
X110053380Y-77001619D01*
X110053380Y-76715904D02*
X109053380Y-76715904D01*
X109196238Y-76811142D01*
X109291476Y-76906380D01*
X109339095Y-77001619D01*
X110053380Y-76001619D02*
X109053380Y-76001619D01*
X109672428Y-75906380D02*
X110053380Y-75620666D01*
X109386714Y-75620666D02*
X109767666Y-76001619D01*
X110053380Y-75239714D02*
X110053380Y-75001619D01*
X109862904Y-75001619D01*
X109815285Y-75096857D01*
X109720047Y-75192095D01*
X109577190Y-75239714D01*
X109339095Y-75239714D01*
X109196238Y-75192095D01*
X109101000Y-75096857D01*
X109053380Y-74954000D01*
X109053380Y-74763523D01*
X109101000Y-74620666D01*
X109196238Y-74525428D01*
X109339095Y-74477809D01*
X109577190Y-74477809D01*
X109720047Y-74525428D01*
X109815285Y-74620666D01*
X109862904Y-74715904D01*
X110053380Y-74715904D01*
X110053380Y-74477809D01*
%TO.C,F1*%
X114461071Y-72564583D02*
X114461071Y-72897916D01*
X114984880Y-72897916D02*
X113984880Y-72897916D01*
X113984880Y-72421726D01*
X114984880Y-71516964D02*
X114984880Y-72088392D01*
X114984880Y-71802678D02*
X113984880Y-71802678D01*
X114127738Y-71897916D01*
X114222976Y-71993154D01*
X114270595Y-72088392D01*
%TO.C,C5*%
X116927380Y-108799107D02*
X116927380Y-108703869D01*
X116975000Y-108608630D01*
X117022619Y-108561011D01*
X117117857Y-108513392D01*
X117308333Y-108465773D01*
X117546428Y-108465773D01*
X117736904Y-108513392D01*
X117832142Y-108561011D01*
X117879761Y-108608630D01*
X117927380Y-108703869D01*
X117927380Y-108799107D01*
X117879761Y-108894345D01*
X117832142Y-108941964D01*
X117736904Y-108989583D01*
X117546428Y-109037202D01*
X117308333Y-109037202D01*
X117117857Y-108989583D01*
X117022619Y-108941964D01*
X116975000Y-108894345D01*
X116927380Y-108799107D01*
X117832142Y-108037202D02*
X117879761Y-107989583D01*
X117927380Y-108037202D01*
X117879761Y-108084821D01*
X117832142Y-108037202D01*
X117927380Y-108037202D01*
X117927380Y-107037202D02*
X117927380Y-107608630D01*
X117927380Y-107322916D02*
X116927380Y-107322916D01*
X117070238Y-107418154D01*
X117165476Y-107513392D01*
X117213095Y-107608630D01*
X117260714Y-106180059D02*
X117927380Y-106180059D01*
X117260714Y-106608630D02*
X117784523Y-106608630D01*
X117879761Y-106561011D01*
X117927380Y-106465773D01*
X117927380Y-106322916D01*
X117879761Y-106227678D01*
X117832142Y-106180059D01*
X117403571Y-105370535D02*
X117403571Y-105703869D01*
X117927380Y-105703869D02*
X116927380Y-105703869D01*
X116927380Y-105227678D01*
%TO.C,USB1*%
X105418154Y-68567380D02*
X105418154Y-69376904D01*
X105465773Y-69472142D01*
X105513392Y-69519761D01*
X105608630Y-69567380D01*
X105799107Y-69567380D01*
X105894345Y-69519761D01*
X105941964Y-69472142D01*
X105989583Y-69376904D01*
X105989583Y-68567380D01*
X106418154Y-69519761D02*
X106561011Y-69567380D01*
X106799107Y-69567380D01*
X106894345Y-69519761D01*
X106941964Y-69472142D01*
X106989583Y-69376904D01*
X106989583Y-69281666D01*
X106941964Y-69186428D01*
X106894345Y-69138809D01*
X106799107Y-69091190D01*
X106608630Y-69043571D01*
X106513392Y-68995952D01*
X106465773Y-68948333D01*
X106418154Y-68853095D01*
X106418154Y-68757857D01*
X106465773Y-68662619D01*
X106513392Y-68615000D01*
X106608630Y-68567380D01*
X106846726Y-68567380D01*
X106989583Y-68615000D01*
X107751488Y-69043571D02*
X107894345Y-69091190D01*
X107941964Y-69138809D01*
X107989583Y-69234047D01*
X107989583Y-69376904D01*
X107941964Y-69472142D01*
X107894345Y-69519761D01*
X107799107Y-69567380D01*
X107418154Y-69567380D01*
X107418154Y-68567380D01*
X107751488Y-68567380D01*
X107846726Y-68615000D01*
X107894345Y-68662619D01*
X107941964Y-68757857D01*
X107941964Y-68853095D01*
X107894345Y-68948333D01*
X107846726Y-68995952D01*
X107751488Y-69043571D01*
X107418154Y-69043571D01*
X108941964Y-69567380D02*
X108370535Y-69567380D01*
X108656250Y-69567380D02*
X108656250Y-68567380D01*
X108561011Y-68710238D01*
X108465773Y-68805476D01*
X108370535Y-68853095D01*
%TO.C,SW1*%
X131187500Y-115843750D02*
X125987500Y-115843750D01*
X125987500Y-115843750D02*
X125987500Y-110643750D01*
X125987500Y-110643750D02*
X131187500Y-110643750D01*
X131187500Y-110643750D02*
X131187500Y-115843750D01*
X129587500Y-113243750D02*
G75*
G03*
X129587500Y-113243750I-1000000J0D01*
G01*
D12*
%TO.C,R6*%
X100747500Y-72004186D02*
X100747500Y-72458314D01*
X99277500Y-72004186D02*
X99277500Y-72458314D01*
%TO.C,D2*%
X114887500Y-91150000D02*
X114887500Y-87250000D01*
X116887500Y-91150000D02*
X116887500Y-87250000D01*
X114887500Y-91150000D02*
X116887500Y-91150000D01*
%TO.C,C1*%
X114358750Y-111386252D02*
X114358750Y-110863748D01*
X115828750Y-111386252D02*
X115828750Y-110863748D01*
%TO.C,C3*%
X98089213Y-109241320D02*
X98458680Y-109610787D01*
X99128660Y-108201873D02*
X99498127Y-108571340D01*
%TO.C,R3*%
X119289564Y-118065000D02*
X118835436Y-118065000D01*
X119289564Y-119535000D02*
X118835436Y-119535000D01*
%TO.C,R4*%
X98311532Y-119497085D02*
X97990415Y-119175968D01*
X97272085Y-120536532D02*
X96950968Y-120215415D01*
%TO.C,R2*%
X107815016Y-72080419D02*
X107815016Y-72534547D01*
X106345016Y-72080419D02*
X106345016Y-72534547D01*
%TO.C,Y1*%
X104180940Y-105852513D02*
X101847487Y-103519060D01*
X101847487Y-103519060D02*
X99019060Y-106347487D01*
%TO.C,D1*%
X97837500Y-91150000D02*
X97837500Y-87250000D01*
X95837500Y-91150000D02*
X97837500Y-91150000D01*
X95837500Y-91150000D02*
X95837500Y-87250000D01*
%TO.C,R1*%
X105433766Y-72080419D02*
X105433766Y-72534547D01*
X103963766Y-72080419D02*
X103963766Y-72534547D01*
D10*
%TO.C,U2*%
X101462500Y-76850000D02*
X101462500Y-75550000D01*
X98562500Y-76850000D02*
X101462500Y-76850000D01*
X98562500Y-75550000D02*
X101462500Y-75550000D01*
X98562500Y-75550000D02*
X98562500Y-76850000D01*
D12*
%TO.C,C7*%
X115035000Y-101338748D02*
X115035000Y-101861252D01*
X113565000Y-101338748D02*
X113565000Y-101861252D01*
D10*
%TO.C,U1*%
X102029726Y-114831250D02*
X102259536Y-115061060D01*
X112282774Y-114831250D02*
X112052964Y-115061060D01*
X107156250Y-119957774D02*
X106926440Y-119727964D01*
X106997151Y-109863825D02*
X105989524Y-108856198D01*
X112282774Y-114831250D02*
X112052964Y-114601440D01*
X107156250Y-119957774D02*
X107386060Y-119727964D01*
X107156250Y-109704726D02*
X106997151Y-109863825D01*
X102029726Y-114831250D02*
X102259536Y-114601440D01*
X107156250Y-109704726D02*
X107386060Y-109934536D01*
D12*
%TO.C,C4*%
X97572500Y-113767502D02*
X97572500Y-113244998D01*
X96102500Y-113767502D02*
X96102500Y-113244998D01*
%TO.C,D3*%
X135937500Y-91150000D02*
X135937500Y-87250000D01*
X133937500Y-91150000D02*
X133937500Y-87250000D01*
X133937500Y-91150000D02*
X135937500Y-91150000D01*
%TO.C,C2*%
X105110787Y-102958680D02*
X104741320Y-102589213D01*
X104071340Y-103998127D02*
X103701873Y-103628660D01*
%TO.C,R5*%
X108802500Y-72004186D02*
X108802500Y-72458314D01*
X110272500Y-72004186D02*
X110272500Y-72458314D01*
%TO.C,G\u002A\u002A\u002A*%
G36*
X94519417Y-99076768D02*
G01*
X95134790Y-99084914D01*
X92843334Y-100459734D01*
X90551877Y-101834555D01*
X89301052Y-101834555D01*
X89301052Y-99069722D01*
X91478484Y-99069722D01*
X91835795Y-99069886D01*
X92174500Y-99070359D01*
X92489830Y-99071116D01*
X92777017Y-99072128D01*
X93031295Y-99073371D01*
X93247896Y-99074817D01*
X93422051Y-99076440D01*
X93548993Y-99078213D01*
X93623954Y-99080110D01*
X93643257Y-99081784D01*
X93614480Y-99100453D01*
X93541723Y-99145389D01*
X93433133Y-99211625D01*
X93296854Y-99294196D01*
X93141033Y-99388136D01*
X93119967Y-99400803D01*
X92609335Y-99707761D01*
X89939090Y-99707761D01*
X89939090Y-101196517D01*
X90360424Y-101196517D01*
X92132233Y-100132569D01*
X93904043Y-99068622D01*
X94519417Y-99076768D01*
G37*
G36*
X83730450Y-100451830D02*
G01*
X86034904Y-101834541D01*
X83209306Y-101830517D01*
X80921681Y-100457716D01*
X78634055Y-99084914D01*
X81425997Y-99069120D01*
X83730450Y-100451830D01*
G37*
G36*
X96216430Y-99070546D02*
G01*
X96381246Y-99071999D01*
X96514096Y-99074299D01*
X96606319Y-99077278D01*
X96649257Y-99080772D01*
X96651152Y-99081994D01*
X96623604Y-99099317D01*
X96548254Y-99145272D01*
X96429426Y-99217253D01*
X96271441Y-99312656D01*
X96078621Y-99428879D01*
X95855288Y-99563315D01*
X95605765Y-99713362D01*
X95334373Y-99876414D01*
X95045434Y-100049868D01*
X94906674Y-100133120D01*
X94611064Y-100310514D01*
X94330997Y-100478714D01*
X94070793Y-100635116D01*
X93834776Y-100777116D01*
X93627267Y-100902110D01*
X93452588Y-101007493D01*
X93315062Y-101090662D01*
X93219010Y-101149011D01*
X93168754Y-101179937D01*
X93162196Y-101184245D01*
X93188970Y-101186727D01*
X93270624Y-101189040D01*
X93401277Y-101191135D01*
X93575044Y-101192958D01*
X93786041Y-101194459D01*
X94028385Y-101195587D01*
X94296191Y-101196290D01*
X94567400Y-101196517D01*
X95985263Y-101196517D01*
X95985263Y-99745066D01*
X96296686Y-99560133D01*
X96608110Y-99375199D01*
X96616058Y-100579205D01*
X96617361Y-100843848D01*
X96617714Y-101089266D01*
X96617171Y-101308869D01*
X96615788Y-101496066D01*
X96613619Y-101644266D01*
X96610718Y-101746878D01*
X96607141Y-101797309D01*
X96605935Y-101801288D01*
X96573625Y-101803968D01*
X96484743Y-101806730D01*
X96343483Y-101809534D01*
X96154037Y-101812340D01*
X95920599Y-101815107D01*
X95647362Y-101817796D01*
X95338519Y-101820367D01*
X94998264Y-101822779D01*
X94630790Y-101824993D01*
X94240291Y-101826969D01*
X93830959Y-101828666D01*
X93681240Y-101829196D01*
X90774617Y-101839029D01*
X93083708Y-100454756D01*
X95392799Y-99070484D01*
X96028305Y-99070103D01*
X96216430Y-99070546D01*
G37*
G36*
X86034904Y-102411842D02*
G01*
X81427002Y-105176660D01*
X80025090Y-105176660D01*
X79692930Y-105176442D01*
X79416977Y-105175693D01*
X79192671Y-105174276D01*
X79015455Y-105172050D01*
X78880770Y-105168875D01*
X78784058Y-105164613D01*
X78720761Y-105159125D01*
X78686321Y-105152270D01*
X78676180Y-105143909D01*
X78683108Y-105135617D01*
X78717741Y-105114108D01*
X78800624Y-105063755D01*
X78927856Y-104986901D01*
X79095537Y-104885890D01*
X79299764Y-104763067D01*
X79536637Y-104620774D01*
X79802254Y-104461356D01*
X80092715Y-104287156D01*
X80404119Y-104100518D01*
X80732563Y-103903786D01*
X80984095Y-103753201D01*
X83225152Y-102411828D01*
X86034904Y-102411842D01*
G37*
G36*
X89027607Y-105176660D02*
G01*
X86262775Y-105176660D01*
X86262775Y-99069722D01*
X89027607Y-99069722D01*
X89027607Y-105176660D01*
G37*
G36*
X94309265Y-103753601D02*
G01*
X94647500Y-103956434D01*
X94971585Y-104150885D01*
X95277618Y-104334609D01*
X95561698Y-104505258D01*
X95819924Y-104660485D01*
X96048394Y-104797944D01*
X96243208Y-104915287D01*
X96400464Y-105010168D01*
X96516261Y-105080240D01*
X96586697Y-105123156D01*
X96607274Y-105136017D01*
X96613674Y-105145618D01*
X96599009Y-105153576D01*
X96558770Y-105160015D01*
X96488445Y-105165058D01*
X96383525Y-105168830D01*
X96239501Y-105171455D01*
X96051861Y-105173056D01*
X95816096Y-105173756D01*
X95527697Y-105173681D01*
X95255241Y-105173143D01*
X93843277Y-105169626D01*
X91549378Y-103791095D01*
X89255478Y-102412564D01*
X92071186Y-102411828D01*
X94309265Y-103753601D01*
G37*
%TO.C,F1*%
X111802500Y-71629186D02*
X111802500Y-72833314D01*
X113622500Y-71629186D02*
X113622500Y-72833314D01*
%TO.C,C5*%
X114358750Y-106894998D02*
X114358750Y-107417502D01*
X115828750Y-106894998D02*
X115828750Y-107417502D01*
%TD*%
%LPC*%
D13*
%TO.C,SW1*%
X131687500Y-115093750D03*
X125487500Y-111393750D03*
X131687500Y-111393750D03*
X125487500Y-115093750D03*
%TD*%
D14*
%TO.C,R6*%
X100012500Y-71231250D03*
X100012500Y-73231250D03*
%TD*%
D15*
%TO.C,D2*%
X115887500Y-90550000D03*
X115887500Y-87250000D03*
%TD*%
D16*
%TO.C,C1*%
X115093750Y-112162500D03*
X115093750Y-110087500D03*
%TD*%
D17*
%TO.C,C3*%
X98060047Y-108172707D03*
X99527293Y-109639953D03*
%TD*%
D18*
%TO.C,R3*%
X120062500Y-118800000D03*
X118062500Y-118800000D03*
%TD*%
D19*
%TO.C,R4*%
X98338357Y-120563357D03*
X96924143Y-119149143D03*
%TD*%
D14*
%TO.C,R2*%
X107080016Y-71307483D03*
X107080016Y-73307483D03*
%TD*%
D20*
%TO.C,Y1*%
X101776777Y-104721142D03*
X100221142Y-106276777D03*
X101423223Y-107478858D03*
X102978858Y-105923223D03*
%TD*%
D15*
%TO.C,D1*%
X96837500Y-90550000D03*
X96837500Y-87250000D03*
%TD*%
D14*
%TO.C,R1*%
X104698766Y-71307483D03*
X104698766Y-73307483D03*
%TD*%
D21*
%TO.C,U2*%
X99262500Y-77200000D03*
D22*
X100962500Y-77200000D03*
X100962500Y-75200000D03*
X99062500Y-75200000D03*
%TD*%
D23*
%TO.C,C7*%
X114300000Y-100562500D03*
X114300000Y-102637500D03*
%TD*%
D24*
%TO.C,U1*%
X106130945Y-109846147D03*
X105565260Y-110411833D03*
X104999574Y-110977518D03*
X104433889Y-111543203D03*
X103868203Y-112108889D03*
X103302518Y-112674574D03*
X102736833Y-113240260D03*
X102171147Y-113805945D03*
D25*
X102171147Y-115856555D03*
X102736833Y-116422240D03*
X103302518Y-116987926D03*
X103868203Y-117553611D03*
X104433889Y-118119297D03*
X104999574Y-118684982D03*
X105565260Y-119250667D03*
X106130945Y-119816353D03*
D24*
X108181555Y-119816353D03*
X108747240Y-119250667D03*
X109312926Y-118684982D03*
X109878611Y-118119297D03*
X110444297Y-117553611D03*
X111009982Y-116987926D03*
X111575667Y-116422240D03*
X112141353Y-115856555D03*
D25*
X112141353Y-113805945D03*
X111575667Y-113240260D03*
X111009982Y-112674574D03*
X110444297Y-112108889D03*
X109878611Y-111543203D03*
X109312926Y-110977518D03*
X108747240Y-110411833D03*
X108181555Y-109846147D03*
%TD*%
D16*
%TO.C,C4*%
X96837500Y-114543750D03*
X96837500Y-112468750D03*
%TD*%
D15*
%TO.C,D3*%
X134937500Y-90550000D03*
X134937500Y-87250000D03*
%TD*%
D26*
%TO.C,C2*%
X105139953Y-104027293D03*
X103672707Y-102560047D03*
%TD*%
D14*
%TO.C,R5*%
X109537500Y-71231250D03*
X109537500Y-73231250D03*
%TD*%
D27*
%TO.C,F1*%
X112712500Y-70743750D03*
X112712500Y-73718750D03*
%TD*%
D23*
%TO.C,C5*%
X115093750Y-106118750D03*
X115093750Y-108193750D03*
%TD*%
D28*
%TO.C,USB1*%
X104266250Y-65165000D03*
X110046250Y-65165000D03*
D29*
X110381250Y-67110000D03*
X109606250Y-67110000D03*
D30*
X108906250Y-67110000D03*
X108406250Y-67110000D03*
X107906250Y-67110000D03*
X107406250Y-67110000D03*
X106906250Y-67110000D03*
X106406250Y-67110000D03*
X105906250Y-67110000D03*
X105406250Y-67110000D03*
D29*
X104706250Y-67110000D03*
X103931250Y-67110000D03*
%TD*%
D31*
%TO.C,MX3*%
X126206250Y-88900000D03*
D32*
X121126250Y-88900000D03*
X131286250Y-88900000D03*
D33*
X122396250Y-86360000D03*
X128746250Y-83820000D03*
%TD*%
D32*
%TO.C,MX2*%
X112236250Y-88900000D03*
X102076250Y-88900000D03*
D31*
X107156250Y-88900000D03*
D33*
X103346250Y-86360000D03*
X109696250Y-83820000D03*
%TD*%
D32*
%TO.C,MX1*%
X93186250Y-88900000D03*
X83026250Y-88900000D03*
D31*
X88106250Y-88900000D03*
D33*
X84296250Y-86360000D03*
X90646250Y-83820000D03*
%TD*%
M02*
