%TF.GenerationSoftware,KiCad,Pcbnew,6.0.9*%
%TF.CreationDate,2022-12-09T21:33:21+01:00*%
%TF.ProjectId,rOxpad,724f7870-6164-42e6-9b69-6361645f7063,rev?*%
%TF.SameCoordinates,Original*%
%TF.FileFunction,Paste,Top*%
%TF.FilePolarity,Positive*%
%FSLAX46Y46*%
G04 Gerber Fmt 4.6, Leading zero omitted, Abs format (unit mm)*
G04 Created by KiCad (PCBNEW 6.0.9) date 2022-12-09 21:33:21*
%MOMM*%
%LPD*%
G01*
G04 APERTURE LIST*
G04 Aperture macros list*
%AMRoundRect*
0 Rectangle with rounded corners*
0 $1 Rounding radius*
0 $2 $3 $4 $5 $6 $7 $8 $9 X,Y pos of 4 corners*
0 Add a 4 corners polygon primitive as box body*
4,1,4,$2,$3,$4,$5,$6,$7,$8,$9,$2,$3,0*
0 Add four circle primitives for the rounded corners*
1,1,$1+$1,$2,$3*
1,1,$1+$1,$4,$5*
1,1,$1+$1,$6,$7*
1,1,$1+$1,$8,$9*
0 Add four rect primitives between the rounded corners*
20,1,$1+$1,$2,$3,$4,$5,0*
20,1,$1+$1,$4,$5,$6,$7,0*
20,1,$1+$1,$6,$7,$8,$9,0*
20,1,$1+$1,$8,$9,$2,$3,0*%
%AMRotRect*
0 Rectangle, with rotation*
0 The origin of the aperture is its center*
0 $1 length*
0 $2 width*
0 $3 Rotation angle, in degrees counterclockwise*
0 Add horizontal line*
21,1,$1,$2,0,0,$3*%
G04 Aperture macros list end*
%ADD10R,1.800000X1.100000*%
%ADD11RoundRect,0.250000X-0.450000X0.350000X-0.450000X-0.350000X0.450000X-0.350000X0.450000X0.350000X0*%
%ADD12R,1.200000X0.900000*%
%ADD13RoundRect,0.250000X0.475000X-0.337500X0.475000X0.337500X-0.475000X0.337500X-0.475000X-0.337500X0*%
%ADD14RoundRect,0.250000X-0.574524X-0.097227X-0.097227X-0.574524X0.574524X0.097227X0.097227X0.574524X0*%
%ADD15RoundRect,0.250000X0.350000X0.450000X-0.350000X0.450000X-0.350000X-0.450000X0.350000X-0.450000X0*%
%ADD16RoundRect,0.250000X0.565685X0.070711X0.070711X0.565685X-0.565685X-0.070711X-0.070711X-0.565685X0*%
%ADD17RotRect,1.400000X1.200000X225.000000*%
%ADD18R,1.000000X0.700000*%
%ADD19R,0.600000X0.700000*%
%ADD20RoundRect,0.250000X-0.475000X0.337500X-0.475000X-0.337500X0.475000X-0.337500X0.475000X0.337500X0*%
%ADD21RotRect,1.600000X0.550000X315.000000*%
%ADD22RotRect,1.600000X0.550000X45.000000*%
%ADD23RoundRect,0.250000X0.574524X0.097227X0.097227X0.574524X-0.574524X-0.097227X-0.097227X-0.574524X0*%
%ADD24RoundRect,0.250001X-0.624999X0.462499X-0.624999X-0.462499X0.624999X-0.462499X0.624999X0.462499X0*%
%ADD25R,0.600000X2.450000*%
%ADD26R,0.300000X2.450000*%
G04 APERTURE END LIST*
D10*
%TO.C,SW1*%
X131687500Y-115093750D03*
X125487500Y-111393750D03*
X131687500Y-111393750D03*
X125487500Y-115093750D03*
%TD*%
D11*
%TO.C,R6*%
X100012500Y-71231250D03*
X100012500Y-73231250D03*
%TD*%
D12*
%TO.C,D2*%
X115887500Y-90550000D03*
X115887500Y-87250000D03*
%TD*%
D13*
%TO.C,C1*%
X115093750Y-112162500D03*
X115093750Y-110087500D03*
%TD*%
D14*
%TO.C,C3*%
X98060047Y-108172707D03*
X99527293Y-109639953D03*
%TD*%
D15*
%TO.C,R3*%
X120062500Y-118800000D03*
X118062500Y-118800000D03*
%TD*%
D16*
%TO.C,R4*%
X98338357Y-120563357D03*
X96924143Y-119149143D03*
%TD*%
D11*
%TO.C,R2*%
X107080016Y-71307483D03*
X107080016Y-73307483D03*
%TD*%
D17*
%TO.C,Y1*%
X101776777Y-104721142D03*
X100221142Y-106276777D03*
X101423223Y-107478858D03*
X102978858Y-105923223D03*
%TD*%
D12*
%TO.C,D1*%
X96837500Y-90550000D03*
X96837500Y-87250000D03*
%TD*%
D11*
%TO.C,R1*%
X104698766Y-71307483D03*
X104698766Y-73307483D03*
%TD*%
D18*
%TO.C,U2*%
X99262500Y-77200000D03*
D19*
X100962500Y-77200000D03*
X100962500Y-75200000D03*
X99062500Y-75200000D03*
%TD*%
D20*
%TO.C,C7*%
X114300000Y-100562500D03*
X114300000Y-102637500D03*
%TD*%
D21*
%TO.C,U1*%
X106130945Y-109846147D03*
X105565260Y-110411833D03*
X104999574Y-110977518D03*
X104433889Y-111543203D03*
X103868203Y-112108889D03*
X103302518Y-112674574D03*
X102736833Y-113240260D03*
X102171147Y-113805945D03*
D22*
X102171147Y-115856555D03*
X102736833Y-116422240D03*
X103302518Y-116987926D03*
X103868203Y-117553611D03*
X104433889Y-118119297D03*
X104999574Y-118684982D03*
X105565260Y-119250667D03*
X106130945Y-119816353D03*
D21*
X108181555Y-119816353D03*
X108747240Y-119250667D03*
X109312926Y-118684982D03*
X109878611Y-118119297D03*
X110444297Y-117553611D03*
X111009982Y-116987926D03*
X111575667Y-116422240D03*
X112141353Y-115856555D03*
D22*
X112141353Y-113805945D03*
X111575667Y-113240260D03*
X111009982Y-112674574D03*
X110444297Y-112108889D03*
X109878611Y-111543203D03*
X109312926Y-110977518D03*
X108747240Y-110411833D03*
X108181555Y-109846147D03*
%TD*%
D13*
%TO.C,C4*%
X96837500Y-114543750D03*
X96837500Y-112468750D03*
%TD*%
D12*
%TO.C,D3*%
X134937500Y-90550000D03*
X134937500Y-87250000D03*
%TD*%
D23*
%TO.C,C2*%
X105139953Y-104027293D03*
X103672707Y-102560047D03*
%TD*%
D11*
%TO.C,R5*%
X109537500Y-71231250D03*
X109537500Y-73231250D03*
%TD*%
D24*
%TO.C,F1*%
X112712500Y-70743750D03*
X112712500Y-73718750D03*
%TD*%
D20*
%TO.C,C5*%
X115093750Y-106118750D03*
X115093750Y-108193750D03*
%TD*%
D25*
%TO.C,USB1*%
X110381250Y-67110000D03*
X109606250Y-67110000D03*
D26*
X108906250Y-67110000D03*
X108406250Y-67110000D03*
X107906250Y-67110000D03*
X107406250Y-67110000D03*
X106906250Y-67110000D03*
X106406250Y-67110000D03*
X105906250Y-67110000D03*
X105406250Y-67110000D03*
D25*
X104706250Y-67110000D03*
X103931250Y-67110000D03*
%TD*%
M02*
