%TF.GenerationSoftware,KiCad,Pcbnew,6.0.9*%
%TF.CreationDate,2022-12-09T21:33:21+01:00*%
%TF.ProjectId,rOxpad,724f7870-6164-42e6-9b69-6361645f7063,rev?*%
%TF.SameCoordinates,Original*%
%TF.FileFunction,Legend,Bot*%
%TF.FilePolarity,Positive*%
%FSLAX46Y46*%
G04 Gerber Fmt 4.6, Leading zero omitted, Abs format (unit mm)*
G04 Created by KiCad (PCBNEW 6.0.9) date 2022-12-09 21:33:21*
%MOMM*%
%LPD*%
G01*
G04 APERTURE LIST*
G04 Aperture macros list*
%AMRoundRect*
0 Rectangle with rounded corners*
0 $1 Rounding radius*
0 $2 $3 $4 $5 $6 $7 $8 $9 X,Y pos of 4 corners*
0 Add a 4 corners polygon primitive as box body*
4,1,4,$2,$3,$4,$5,$6,$7,$8,$9,$2,$3,0*
0 Add four circle primitives for the rounded corners*
1,1,$1+$1,$2,$3*
1,1,$1+$1,$4,$5*
1,1,$1+$1,$6,$7*
1,1,$1+$1,$8,$9*
0 Add four rect primitives between the rounded corners*
20,1,$1+$1,$2,$3,$4,$5,0*
20,1,$1+$1,$4,$5,$6,$7,0*
20,1,$1+$1,$6,$7,$8,$9,0*
20,1,$1+$1,$8,$9,$2,$3,0*%
G04 Aperture macros list end*
%ADD10C,0.150000*%
%ADD11C,0.650000*%
%ADD12O,1.000000X2.100000*%
%ADD13O,1.000000X1.600000*%
%ADD14C,3.987800*%
%ADD15C,1.750000*%
%ADD16C,3.300000*%
%ADD17RoundRect,0.250000X1.025000X1.000000X-1.025000X1.000000X-1.025000X-1.000000X1.025000X-1.000000X0*%
G04 APERTURE END LIST*
D10*
%TO.C,MX3*%
X131741964Y-87602380D02*
X131741964Y-86602380D01*
X131408630Y-87316666D01*
X131075297Y-86602380D01*
X131075297Y-87602380D01*
X130694345Y-86602380D02*
X130027678Y-87602380D01*
X130027678Y-86602380D02*
X130694345Y-87602380D01*
X129741964Y-86602380D02*
X129122916Y-86602380D01*
X129456250Y-86983333D01*
X129313392Y-86983333D01*
X129218154Y-87030952D01*
X129170535Y-87078571D01*
X129122916Y-87173809D01*
X129122916Y-87411904D01*
X129170535Y-87507142D01*
X129218154Y-87554761D01*
X129313392Y-87602380D01*
X129599107Y-87602380D01*
X129694345Y-87554761D01*
X129741964Y-87507142D01*
%TO.C,MX2*%
X112691964Y-87602380D02*
X112691964Y-86602380D01*
X112358630Y-87316666D01*
X112025297Y-86602380D01*
X112025297Y-87602380D01*
X111644345Y-86602380D02*
X110977678Y-87602380D01*
X110977678Y-86602380D02*
X111644345Y-87602380D01*
X110644345Y-86697619D02*
X110596726Y-86650000D01*
X110501488Y-86602380D01*
X110263392Y-86602380D01*
X110168154Y-86650000D01*
X110120535Y-86697619D01*
X110072916Y-86792857D01*
X110072916Y-86888095D01*
X110120535Y-87030952D01*
X110691964Y-87602380D01*
X110072916Y-87602380D01*
%TO.C,MX1*%
X93641964Y-87602380D02*
X93641964Y-86602380D01*
X93308630Y-87316666D01*
X92975297Y-86602380D01*
X92975297Y-87602380D01*
X92594345Y-86602380D02*
X91927678Y-87602380D01*
X91927678Y-86602380D02*
X92594345Y-87602380D01*
X91022916Y-87602380D02*
X91594345Y-87602380D01*
X91308630Y-87602380D02*
X91308630Y-86602380D01*
X91403869Y-86745238D01*
X91499107Y-86840476D01*
X91594345Y-86888095D01*
%TO.C,MX3*%
X120121074Y-87799780D02*
X120121074Y-88039780D01*
X130571074Y-86199780D02*
X126006250Y-86199780D01*
X131071074Y-85229780D02*
X131071074Y-85699780D01*
X131071074Y-82149780D02*
X131071074Y-82379780D01*
X120121074Y-84949780D02*
X120121074Y-84149780D01*
X122121074Y-82149780D02*
X128021074Y-82149780D01*
X129521074Y-82149780D02*
X131071074Y-82149780D01*
X126006250Y-86199780D02*
G75*
G03*
X123711928Y-88039780I-866J-2349332D01*
G01*
X130571074Y-86199780D02*
G75*
G03*
X131071074Y-85699780I-1J500001D01*
G01*
X122121074Y-82149780D02*
G75*
G03*
X120121074Y-84149780I4J-2000004D01*
G01*
%TO.C,MX2*%
X112021074Y-85229780D02*
X112021074Y-85699780D01*
X101071074Y-84949780D02*
X101071074Y-84149780D01*
X110471074Y-82149780D02*
X112021074Y-82149780D01*
X101071074Y-87799780D02*
X101071074Y-88039780D01*
X112021074Y-82149780D02*
X112021074Y-82379780D01*
X111521074Y-86199780D02*
X106956250Y-86199780D01*
X103071074Y-82149780D02*
X108971074Y-82149780D01*
X103071074Y-82149780D02*
G75*
G03*
X101071074Y-84149780I4J-2000004D01*
G01*
X111521074Y-86199780D02*
G75*
G03*
X112021074Y-85699780I-1J500001D01*
G01*
X106956250Y-86199780D02*
G75*
G03*
X104661928Y-88039780I-866J-2349332D01*
G01*
%TO.C,MX1*%
X92971074Y-85229780D02*
X92971074Y-85699780D01*
X82021074Y-87799780D02*
X82021074Y-88039780D01*
X91421074Y-82149780D02*
X92971074Y-82149780D01*
X92971074Y-82149780D02*
X92971074Y-82379780D01*
X82021074Y-84949780D02*
X82021074Y-84149780D01*
X84021074Y-82149780D02*
X89921074Y-82149780D01*
X92471074Y-86199780D02*
X87906250Y-86199780D01*
X84021074Y-82149780D02*
G75*
G03*
X82021074Y-84149780I4J-2000004D01*
G01*
X87906250Y-86199780D02*
G75*
G03*
X85611928Y-88039780I-866J-2349332D01*
G01*
X92471074Y-86199780D02*
G75*
G03*
X92971074Y-85699780I-1J500001D01*
G01*
%TD*%
%LPC*%
D11*
%TO.C,USB1*%
X104266250Y-65165000D03*
X110046250Y-65165000D03*
D12*
X111476250Y-65695000D03*
X102836250Y-65695000D03*
D13*
X111476250Y-61515000D03*
X102836250Y-61515000D03*
%TD*%
D14*
%TO.C,MX3*%
X126206250Y-88900000D03*
D15*
X121126250Y-88900000D03*
X131286250Y-88900000D03*
D16*
X122396250Y-86360000D03*
D17*
X118846250Y-86360000D03*
X132296250Y-83820000D03*
D16*
X128746250Y-83820000D03*
%TD*%
D15*
%TO.C,MX2*%
X112236250Y-88900000D03*
X102076250Y-88900000D03*
D14*
X107156250Y-88900000D03*
D16*
X103346250Y-86360000D03*
D17*
X99796250Y-86360000D03*
D16*
X109696250Y-83820000D03*
D17*
X113246250Y-83820000D03*
%TD*%
D15*
%TO.C,MX1*%
X93186250Y-88900000D03*
X83026250Y-88900000D03*
D14*
X88106250Y-88900000D03*
D17*
X80746250Y-86360000D03*
D16*
X84296250Y-86360000D03*
D17*
X94196250Y-83820000D03*
D16*
X90646250Y-83820000D03*
%TD*%
M02*
