M48
; DRILL file {KiCad 6.0.9} date Fri 09 Dec 2022 21:33:21 CET
; FORMAT={-:-/ absolute / inch / decimal}
; #@! TF.CreationDate,2022-12-09T21:33:21+01:00
; #@! TF.GenerationSoftware,Kicad,Pcbnew,6.0.9
; #@! TF.FileFunction,Plated,1,2,PTH
FMAT,2
INCH
; #@! TA.AperFunction,Plated,PTH,ViaDrill
T1C0.0157
; #@! TA.AperFunction,Plated,PTH,ComponentDrill
T2C0.0236
; #@! TA.AperFunction,Plated,PTH,ComponentDrill
T3C0.1181
%
G90
G05
T1
X3.8125Y-3.3125
X3.844Y-2.9688
X4.0Y-2.7188
X4.0312Y-2.8125
X4.0579Y-2.7454
X4.0938Y-2.9375
X4.1476Y-2.7413
X4.1875Y-2.9375
X4.2037Y-2.7662
X4.2233Y-4.7976
X4.25Y-2.9375
X4.2812Y-4.8334
X4.3438Y-4.7709
X4.3748Y-4.3022
X4.375Y-4.2187
X4.375Y-2.7188
X4.375Y-2.8125
X4.4062Y-4.1875
X4.4082Y-4.2815
X4.5623Y-3.8438
X4.5625Y-3.3125
X4.6562Y-4.125
X4.8125Y-3.25
X4.8438Y-4.4688
X5.3125Y-3.3125
T3
X3.3188Y-3.4
X3.5688Y-3.3
X4.0687Y-3.4
X4.3187Y-3.3
X4.8187Y-3.4
X5.0687Y-3.3
T2
G00X4.0487Y-2.4337
M15
G01X4.0487Y-2.41
M16
G05
G00X4.0487Y-2.6081
M15
G01X4.0487Y-2.5648
M16
G05
G00X4.3888Y-2.4337
M15
G01X4.3888Y-2.41
M16
G05
G00X4.3888Y-2.6081
M15
G01X4.3888Y-2.5648
M16
G05
T0
M30
